<svg width="27" height="22" viewBox="0 0 27 22" fill="none" xmlns="http://www.w3.org/2000/svg">
<path d="M5.16599 21.6919C5.08696 21.7826 4.99102 21.8564 4.88375 21.909C4.77648 21.9617 4.66001 21.9922 4.54108 21.9987C4.42216 22.0052 4.30315 21.9876 4.19094 21.947C4.07874 21.9063 3.97558 21.8434 3.88744 21.7619C3.7993 21.6804 3.72794 21.5819 3.67748 21.4721C3.62703 21.3623 3.59849 21.2434 3.59352 21.1222C3.58855 21.0011 3.60724 20.8802 3.64852 20.7665C3.6898 20.6528 3.75284 20.5486 3.83399 20.4599L5.99849 18.0359C1.91249 15.4838 0.155239 11.5496 0.0776143 11.371C0.0264416 11.2538 0 11.1271 0 10.9989C0 10.8707 0.0264416 10.7439 0.0776143 10.6267C0.116989 10.5363 1.06987 8.38599 3.18824 6.22998C6.01087 3.35836 9.576 1.84011 13.5 1.84011C15.5167 1.82841 17.513 2.251 19.3579 3.08013L21.8329 0.308113C21.9119 0.217437 22.0079 0.143629 22.1151 0.0909661C22.2224 0.0383032 22.3389 0.0078335 22.4578 0.00132187C22.5767 -0.00518977 22.6957 0.0123869 22.8079 0.0530329C22.9201 0.0936788 23.0233 0.156586 23.1114 0.238108C23.1996 0.31963 23.2709 0.418145 23.3214 0.527945C23.3718 0.637744 23.4004 0.756643 23.4054 0.877751C23.4103 0.998859 23.3916 1.11977 23.3504 1.23347C23.3091 1.34717 23.246 1.4514 23.1649 1.54012L5.16599 21.6919ZM15.1785 7.75854C14.4726 7.38056 13.6633 7.25191 12.8777 7.39279C12.0921 7.53367 11.3748 7.9361 10.8383 8.5369C10.3018 9.13769 9.97654 9.90282 9.91361 10.7121C9.85069 11.5214 10.0536 12.3291 10.4906 13.0083L15.1785 7.75854ZM26.9224 10.6267C26.8751 10.5191 25.7355 7.9509 23.1694 5.61169C22.9925 5.45018 22.7601 5.36639 22.5228 5.37862C22.2855 5.39085 22.0626 5.49809 21.9026 5.67696L10.5075 18.4344C10.3985 18.5561 10.3237 18.7056 10.2912 18.8669C10.2586 19.0282 10.2693 19.1955 10.3223 19.3512C10.3753 19.5068 10.4685 19.6451 10.5922 19.7513C10.7158 19.8576 10.8654 19.9279 11.025 19.9549C11.8431 20.0924 12.6709 20.161 13.5 20.1599C17.424 20.1599 20.9891 18.6416 23.8118 15.7689C25.9301 13.6129 26.883 11.4614 26.9224 11.371C26.9736 11.2538 27 11.1271 27 10.9989C27 10.8707 26.9736 10.7439 26.9224 10.6267Z" fill="#A7A3FF"/>
</svg>
