<svg width="27" height="18" viewBox="0 0 27 18" fill="none" xmlns="http://www.w3.org/2000/svg">
<path d="M26.9224 8.6355C26.883 8.54663 25.9301 6.43275 23.8118 4.31437C20.9891 1.49175 17.424 0 13.5 0C9.576 0 6.01087 1.49175 3.18824 4.31437C1.06987 6.43275 0.112489 8.55 0.0776143 8.6355C0.0264416 8.7506 0 8.87516 0 9.00112C0 9.12709 0.0264416 9.25165 0.0776143 9.36675C0.116989 9.45562 1.06987 11.5684 3.18824 13.6868C6.01087 16.5082 9.576 18 13.5 18C17.424 18 20.9891 16.5082 23.8118 13.6868C25.9301 11.5684 26.883 9.45562 26.9224 9.36675C26.9736 9.25165 27 9.12709 27 9.00112C27 8.87516 26.9736 8.7506 26.9224 8.6355ZM13.5 13.5C12.61 13.5 11.74 13.2361 10.9999 12.7416C10.2599 12.2471 9.68313 11.5443 9.34254 10.7221C9.00194 9.89981 8.91283 8.99501 9.08646 8.12209C9.2601 7.24918 9.68868 6.44736 10.318 5.81802C10.9474 5.18868 11.7492 4.7601 12.6221 4.58647C13.495 4.41283 14.3998 4.50195 15.2221 4.84254C16.0443 5.18314 16.7471 5.75991 17.2416 6.49993C17.7361 7.23996 18 8.10998 18 9C18 10.1935 17.5259 11.3381 16.682 12.182C15.8381 13.0259 14.6935 13.5 13.5 13.5Z" fill="#A7A3FF"/>
</svg>
